<?xml version="1.0" encoding="UTF-8" standalone="no"?>
<!DOCTYPE svg PUBLIC "-//W3C//DTD SVG 1.1//EN"
 "http://www.w3.org/Graphics/SVG/1.1/DTD/svg11.dtd">
<!-- Generated by graphviz version 2.43.0 (0)
 -->
<!-- Title: %3 Pages: 1 -->
<svg width="242pt" height="98pt"
 viewBox="0.00 0.00 242.00 98.00" xmlns="http://www.w3.org/2000/svg" xmlns:xlink="http://www.w3.org/1999/xlink">
<g id="graph0" class="graph" transform="scale(1 1) rotate(0) translate(4 94)">
<title>%3</title>
<polygon fill="white" stroke="transparent" points="-4,4 -4,-94 238,-94 238,4 -4,4"/>
<!-- n4 -->
<g id="node1" class="node">
<title>n4</title>
<ellipse fill="none" stroke="black" cx="207" cy="-45" rx="27" ry="18"/>
<text text-anchor="start" x="199.5" y="-41.3" font-family="Times,serif" font-size="14.00">@</text>
</g>
<!-- n3 -->
<g id="node2" class="node">
<title>n3</title>
<ellipse fill="none" stroke="black" cx="117" cy="-72" rx="27" ry="18"/>
<text text-anchor="start" x="112" y="-68.3" font-family="Times,serif" font-size="14.00">T</text>
</g>
<!-- n3&#45;&gt;n4 -->
<g id="edge1" class="edge">
<title>n3&#45;&gt;n4</title>
<path fill="none" stroke="black" d="M142.05,-64.62C151.44,-61.74 162.36,-58.39 172.5,-55.28"/>
<polygon fill="black" stroke="black" points="173.75,-58.55 182.29,-52.28 171.7,-51.86 173.75,-58.55"/>
</g>
<!-- n0 -->
<g id="node3" class="node">
<title>n0</title>
<ellipse fill="none" stroke="black" cx="117" cy="-18" rx="27" ry="18"/>
<text text-anchor="start" x="112.5" y="-14.3" font-family="Times,serif" font-size="14.00">a</text>
</g>
<!-- n0&#45;&gt;n4 -->
<g id="edge2" class="edge">
<title>n0&#45;&gt;n4</title>
<path fill="none" stroke="black" d="M142.05,-25.38C151.44,-28.26 162.36,-31.61 172.5,-34.72"/>
<polygon fill="black" stroke="black" points="171.7,-38.14 182.29,-37.72 173.75,-31.45 171.7,-38.14"/>
</g>
<!-- n1 -->
<g id="node4" class="node">
<title>n1</title>
<ellipse fill="none" stroke="black" cx="27" cy="-72" rx="27" ry="18"/>
<text text-anchor="start" x="22" y="-68.3" font-family="Times,serif" font-size="14.00">b</text>
</g>
<!-- n1&#45;&gt;n3 -->
<g id="edge3" class="edge">
<title>n1&#45;&gt;n3</title>
<path fill="none" stroke="black" d="M54.4,-72C62.39,-72 71.31,-72 79.82,-72"/>
<polygon fill="black" stroke="black" points="79.92,-75.5 89.92,-72 79.92,-68.5 79.92,-75.5"/>
</g>
</g>
</svg>
