<?xml version="1.0" encoding="UTF-8" standalone="no"?>
<!DOCTYPE svg PUBLIC "-//W3C//DTD SVG 1.1//EN"
 "http://www.w3.org/Graphics/SVG/1.1/DTD/svg11.dtd">
<!-- Generated by graphviz version 2.43.0 (0)
 -->
<!-- Title: %3 Pages: 1 -->
<svg width="206pt" height="404pt"
 viewBox="0.00 0.00 206.00 404.00" xmlns="http://www.w3.org/2000/svg" xmlns:xlink="http://www.w3.org/1999/xlink">
<g id="graph0" class="graph" transform="scale(1 1) rotate(0) translate(4 400)">
<title>%3</title>
<polygon fill="white" stroke="transparent" points="-4,4 -4,-400 202,-400 202,4 -4,4"/>
<!-- n12 -->
<g id="node1" class="node">
<title>n12</title>
<ellipse fill="none" stroke="black" cx="135" cy="-18" rx="27" ry="18"/>
<text text-anchor="start" x="127.5" y="-14.3" font-family="Times,serif" font-size="14.00">@</text>
</g>
<!-- n11 -->
<g id="node2" class="node">
<title>n11</title>
<ellipse fill="none" stroke="black" cx="99" cy="-90" rx="27" ry="18"/>
<text text-anchor="start" x="95.5" y="-86.3" font-family="Times,serif" font-size="14.00">*</text>
</g>
<!-- n11&#45;&gt;n12 -->
<g id="edge1" class="edge">
<title>n11&#45;&gt;n12</title>
<path fill="none" stroke="black" d="M107.35,-72.76C111.71,-64.28 117.15,-53.71 122.04,-44.2"/>
<polygon fill="black" stroke="black" points="125.23,-45.64 126.7,-35.15 119.01,-42.44 125.23,-45.64"/>
</g>
<!-- n0 -->
<g id="node3" class="node">
<title>n0</title>
<ellipse fill="none" stroke="black" cx="171" cy="-90" rx="27" ry="18"/>
<text text-anchor="start" x="158.5" y="-86.3" font-family="Times,serif" font-size="14.00">Var</text>
</g>
<!-- n0&#45;&gt;n12 -->
<g id="edge2" class="edge">
<title>n0&#45;&gt;n12</title>
<path fill="none" stroke="black" d="M162.65,-72.76C158.29,-64.28 152.85,-53.71 147.96,-44.2"/>
<polygon fill="black" stroke="black" points="150.99,-42.44 143.3,-35.15 144.77,-45.64 150.99,-42.44"/>
</g>
<!-- n10 -->
<g id="node4" class="node">
<title>n10</title>
<ellipse fill="none" stroke="black" cx="63" cy="-162" rx="27" ry="18"/>
<text text-anchor="start" x="52" y="-158.3" font-family="Times,serif" font-size="14.00">sin</text>
</g>
<!-- n10&#45;&gt;n11 -->
<g id="edge3" class="edge">
<title>n10&#45;&gt;n11</title>
<path fill="none" stroke="black" d="M71.35,-144.76C75.71,-136.28 81.15,-125.71 86.04,-116.2"/>
<polygon fill="black" stroke="black" points="89.23,-117.64 90.7,-107.15 83.01,-114.44 89.23,-117.64"/>
</g>
<!-- n7 -->
<g id="node5" class="node">
<title>n7</title>
<ellipse fill="none" stroke="black" cx="135" cy="-162" rx="27" ry="18"/>
<text text-anchor="start" x="130.5" y="-158.3" font-family="Times,serif" font-size="14.00">e</text>
</g>
<!-- n7&#45;&gt;n11 -->
<g id="edge4" class="edge">
<title>n7&#45;&gt;n11</title>
<path fill="none" stroke="black" d="M126.65,-144.76C122.29,-136.28 116.85,-125.71 111.96,-116.2"/>
<polygon fill="black" stroke="black" points="114.99,-114.44 107.3,-107.15 108.77,-117.64 114.99,-114.44"/>
</g>
<!-- n9 -->
<g id="node6" class="node">
<title>n9</title>
<ellipse fill="none" stroke="black" cx="63" cy="-234" rx="27" ry="18"/>
<text text-anchor="start" x="56.5" y="-230.3" font-family="Times,serif" font-size="14.00">+</text>
</g>
<!-- n9&#45;&gt;n10 -->
<g id="edge5" class="edge">
<title>n9&#45;&gt;n10</title>
<path fill="none" stroke="black" d="M63,-215.7C63,-207.98 63,-198.71 63,-190.11"/>
<polygon fill="black" stroke="black" points="66.5,-190.1 63,-180.1 59.5,-190.1 66.5,-190.1"/>
</g>
<!-- n4 -->
<g id="node7" class="node">
<title>n4</title>
<ellipse fill="none" stroke="black" cx="27" cy="-306" rx="27" ry="18"/>
<text text-anchor="start" x="14.5" y="-302.3" font-family="Times,serif" font-size="14.00">Var</text>
</g>
<!-- n4&#45;&gt;n9 -->
<g id="edge6" class="edge">
<title>n4&#45;&gt;n9</title>
<path fill="none" stroke="black" d="M35.35,-288.76C39.71,-280.28 45.15,-269.71 50.04,-260.2"/>
<polygon fill="black" stroke="black" points="53.23,-261.64 54.7,-251.15 47.01,-258.44 53.23,-261.64"/>
</g>
<!-- n8 -->
<g id="node8" class="node">
<title>n8</title>
<ellipse fill="none" stroke="black" cx="99" cy="-306" rx="27" ry="18"/>
<text text-anchor="start" x="87" y="-302.3" font-family="Times,serif" font-size="14.00">cos</text>
</g>
<!-- n8&#45;&gt;n9 -->
<g id="edge7" class="edge">
<title>n8&#45;&gt;n9</title>
<path fill="none" stroke="black" d="M90.65,-288.76C86.29,-280.28 80.85,-269.71 75.96,-260.2"/>
<polygon fill="black" stroke="black" points="78.99,-258.44 71.3,-251.15 72.77,-261.64 78.99,-258.44"/>
</g>
<!-- n1 -->
<g id="node9" class="node">
<title>n1</title>
<ellipse fill="none" stroke="black" cx="99" cy="-378" rx="27" ry="18"/>
<text text-anchor="start" x="86.5" y="-374.3" font-family="Times,serif" font-size="14.00">Var</text>
</g>
<!-- n1&#45;&gt;n8 -->
<g id="edge8" class="edge">
<title>n1&#45;&gt;n8</title>
<path fill="none" stroke="black" d="M99,-359.7C99,-351.98 99,-342.71 99,-334.11"/>
<polygon fill="black" stroke="black" points="102.5,-334.1 99,-324.1 95.5,-334.1 102.5,-334.1"/>
</g>
<!-- n3 -->
<g id="node10" class="node">
<title>n3</title>
<ellipse fill="none" stroke="black" cx="135" cy="-234" rx="27" ry="18"/>
<text text-anchor="start" x="122.5" y="-230.3" font-family="Times,serif" font-size="14.00">Var</text>
</g>
<!-- n3&#45;&gt;n7 -->
<g id="edge9" class="edge">
<title>n3&#45;&gt;n7</title>
<path fill="none" stroke="black" d="M135,-215.7C135,-207.98 135,-198.71 135,-190.11"/>
<polygon fill="black" stroke="black" points="138.5,-190.1 135,-180.1 131.5,-190.1 138.5,-190.1"/>
</g>
</g>
</svg>
