<?xml version="1.0" encoding="UTF-8" standalone="no"?>
<!DOCTYPE svg PUBLIC "-//W3C//DTD SVG 1.1//EN"
 "http://www.w3.org/Graphics/SVG/1.1/DTD/svg11.dtd">
<!-- Generated by graphviz version 2.43.0 (0)
 -->
<!-- Title: %3 Pages: 1 -->
<svg width="658pt" height="152pt"
 viewBox="0.00 0.00 657.79 152.00" xmlns="http://www.w3.org/2000/svg" xmlns:xlink="http://www.w3.org/1999/xlink">
<g id="graph0" class="graph" transform="scale(1 1) rotate(0) translate(4 148)">
<title>%3</title>
<polygon fill="white" stroke="transparent" points="-4,4 -4,-148 653.79,-148 653.79,4 -4,4"/>
<!-- n14 -->
<g id="node1" class="node">
<title>n14</title>
<ellipse fill="none" stroke="black" cx="622.79" cy="-45" rx="27" ry="18"/>
<text text-anchor="start" x="615.29" y="-41.3" font-family="Times,serif" font-size="14.00">@</text>
</g>
<!-- n13 -->
<g id="node2" class="node">
<title>n13</title>
<ellipse fill="none" stroke="black" cx="532.79" cy="-72" rx="27" ry="18"/>
<text text-anchor="start" x="529.29" y="-68.3" font-family="Times,serif" font-size="14.00">*</text>
</g>
<!-- n13&#45;&gt;n14 -->
<g id="edge1" class="edge">
<title>n13&#45;&gt;n14</title>
<path fill="none" stroke="black" d="M557.83,-64.62C567.22,-61.74 578.15,-58.39 588.29,-55.28"/>
<polygon fill="black" stroke="black" points="589.54,-58.55 598.07,-52.28 587.49,-51.86 589.54,-58.55"/>
</g>
<!-- n0 -->
<g id="node3" class="node">
<title>n0</title>
<ellipse fill="none" stroke="black" cx="532.79" cy="-18" rx="27" ry="18"/>
<text text-anchor="start" x="528.29" y="-14.3" font-family="Times,serif" font-size="14.00">a</text>
</g>
<!-- n0&#45;&gt;n14 -->
<g id="edge2" class="edge">
<title>n0&#45;&gt;n14</title>
<path fill="none" stroke="black" d="M557.83,-25.38C567.22,-28.26 578.15,-31.61 588.29,-34.72"/>
<polygon fill="black" stroke="black" points="587.49,-38.14 598.07,-37.72 589.54,-31.45 587.49,-38.14"/>
</g>
<!-- n12 -->
<g id="node4" class="node">
<title>n12</title>
<ellipse fill="none" stroke="black" cx="442.49" cy="-99" rx="27" ry="18"/>
<text text-anchor="start" x="431.49" y="-95.3" font-family="Times,serif" font-size="14.00">sin</text>
</g>
<!-- n12&#45;&gt;n13 -->
<g id="edge3" class="edge">
<title>n12&#45;&gt;n13</title>
<path fill="none" stroke="black" d="M467.62,-91.62C477.04,-88.74 488,-85.39 498.17,-82.28"/>
<polygon fill="black" stroke="black" points="499.45,-85.55 507.99,-79.28 497.41,-78.85 499.45,-85.55"/>
</g>
<!-- n7 -->
<g id="node5" class="node">
<title>n7</title>
<ellipse fill="none" stroke="black" cx="442.49" cy="-45" rx="27.1" ry="18"/>
<text text-anchor="start" x="429.49" y="-41.3" font-family="Times,serif" font-size="14.00">exp</text>
</g>
<!-- n7&#45;&gt;n13 -->
<g id="edge4" class="edge">
<title>n7&#45;&gt;n13</title>
<path fill="none" stroke="black" d="M467.62,-52.38C477.04,-55.26 488,-58.61 498.17,-61.72"/>
<polygon fill="black" stroke="black" points="497.41,-65.15 507.99,-64.72 499.45,-58.45 497.41,-65.15"/>
</g>
<!-- n11 -->
<g id="node6" class="node">
<title>n11</title>
<ellipse fill="none" stroke="black" cx="352.19" cy="-99" rx="27" ry="18"/>
<text text-anchor="start" x="345.69" y="-95.3" font-family="Times,serif" font-size="14.00">+</text>
</g>
<!-- n11&#45;&gt;n12 -->
<g id="edge5" class="edge">
<title>n11&#45;&gt;n12</title>
<path fill="none" stroke="black" d="M379.2,-99C387.31,-99 396.39,-99 405.07,-99"/>
<polygon fill="black" stroke="black" points="405.35,-102.5 415.35,-99 405.35,-95.5 405.35,-102.5"/>
</g>
<!-- n4 -->
<g id="node7" class="node">
<title>n4</title>
<ellipse fill="none" stroke="black" cx="262.19" cy="-126" rx="27" ry="18"/>
<text text-anchor="start" x="257.69" y="-122.3" font-family="Times,serif" font-size="14.00">e</text>
</g>
<!-- n4&#45;&gt;n11 -->
<g id="edge6" class="edge">
<title>n4&#45;&gt;n11</title>
<path fill="none" stroke="black" d="M287.24,-118.62C296.63,-115.74 307.55,-112.39 317.69,-109.28"/>
<polygon fill="black" stroke="black" points="318.94,-112.55 327.48,-106.28 316.89,-105.86 318.94,-112.55"/>
</g>
<!-- n10 -->
<g id="node8" class="node">
<title>n10</title>
<ellipse fill="none" stroke="black" cx="262.19" cy="-72" rx="27" ry="18"/>
<text text-anchor="start" x="250.19" y="-68.3" font-family="Times,serif" font-size="14.00">cos</text>
</g>
<!-- n10&#45;&gt;n11 -->
<g id="edge7" class="edge">
<title>n10&#45;&gt;n11</title>
<path fill="none" stroke="black" d="M287.24,-79.38C296.63,-82.26 307.55,-85.61 317.69,-88.72"/>
<polygon fill="black" stroke="black" points="316.89,-92.14 327.48,-91.72 318.94,-85.45 316.89,-92.14"/>
</g>
<!-- n9 -->
<g id="node9" class="node">
<title>n9</title>
<ellipse fill="none" stroke="black" cx="172.19" cy="-72" rx="27" ry="18"/>
<text text-anchor="start" x="168.69" y="-68.3" font-family="Times,serif" font-size="14.00">*</text>
</g>
<!-- n9&#45;&gt;n10 -->
<g id="edge8" class="edge">
<title>n9&#45;&gt;n10</title>
<path fill="none" stroke="black" d="M199.59,-72C207.58,-72 216.5,-72 225.01,-72"/>
<polygon fill="black" stroke="black" points="225.11,-75.5 235.11,-72 225.11,-68.5 225.11,-75.5"/>
</g>
<!-- n8 -->
<g id="node10" class="node">
<title>n8</title>
<ellipse fill="none" stroke="black" cx="54.6" cy="-99" rx="54.69" ry="18"/>
<text text-anchor="start" x="20.6" y="-95.3" font-family="Times,serif" font-size="14.00">2.000000</text>
</g>
<!-- n8&#45;&gt;n9 -->
<g id="edge9" class="edge">
<title>n8&#45;&gt;n9</title>
<path fill="none" stroke="black" d="M99.63,-88.72C111.86,-85.86 124.98,-82.79 136.59,-80.08"/>
<polygon fill="black" stroke="black" points="137.41,-83.48 146.35,-77.8 135.82,-76.67 137.41,-83.48"/>
</g>
<!-- n1 -->
<g id="node11" class="node">
<title>n1</title>
<ellipse fill="none" stroke="black" cx="54.6" cy="-45" rx="27" ry="18"/>
<text text-anchor="start" x="49.6" y="-41.3" font-family="Times,serif" font-size="14.00">b</text>
</g>
<!-- n1&#45;&gt;n9 -->
<g id="edge10" class="edge">
<title>n1&#45;&gt;n9</title>
<path fill="none" stroke="black" d="M80.39,-50.79C96.77,-54.62 118.47,-59.69 136.55,-63.91"/>
<polygon fill="black" stroke="black" points="135.9,-67.35 146.43,-66.22 137.49,-60.53 135.9,-67.35"/>
</g>
<!-- n3 -->
<g id="node12" class="node">
<title>n3</title>
<ellipse fill="none" stroke="black" cx="352.19" cy="-45" rx="27" ry="18"/>
<text text-anchor="start" x="347.19" y="-41.3" font-family="Times,serif" font-size="14.00">d</text>
</g>
<!-- n3&#45;&gt;n7 -->
<g id="edge11" class="edge">
<title>n3&#45;&gt;n7</title>
<path fill="none" stroke="black" d="M379.2,-45C387.23,-45 396.23,-45 404.84,-45"/>
<polygon fill="black" stroke="black" points="405.05,-48.5 415.05,-45 405.05,-41.5 405.05,-48.5"/>
</g>
</g>
</svg>
