<?xml version="1.0" encoding="UTF-8" standalone="no"?>
<!DOCTYPE svg PUBLIC "-//W3C//DTD SVG 1.1//EN"
 "http://www.w3.org/Graphics/SVG/1.1/DTD/svg11.dtd">
<!-- Generated by graphviz version 2.43.0 (0)
 -->
<!-- Title: %3 Pages: 1 -->
<svg width="212pt" height="476pt"
 viewBox="0.00 0.00 211.60 476.00" xmlns="http://www.w3.org/2000/svg" xmlns:xlink="http://www.w3.org/1999/xlink">
<g id="graph0" class="graph" transform="scale(1 1) rotate(0) translate(4 472)">
<title>%3</title>
<polygon fill="white" stroke="transparent" points="-4,4 -4,-472 207.6,-472 207.6,4 -4,4"/>
<!-- n14 -->
<g id="node1" class="node">
<title>n14</title>
<ellipse fill="none" stroke="black" cx="140.6" cy="-18" rx="27" ry="18"/>
<text text-anchor="start" x="133.1" y="-14.3" font-family="Times,serif" font-size="14.00">@</text>
</g>
<!-- n13 -->
<g id="node2" class="node">
<title>n13</title>
<ellipse fill="none" stroke="black" cx="104.6" cy="-90" rx="27" ry="18"/>
<text text-anchor="start" x="101.1" y="-86.3" font-family="Times,serif" font-size="14.00">*</text>
</g>
<!-- n13&#45;&gt;n14 -->
<g id="edge1" class="edge">
<title>n13&#45;&gt;n14</title>
<path fill="none" stroke="black" d="M112.94,-72.76C117.31,-64.28 122.74,-53.71 127.64,-44.2"/>
<polygon fill="black" stroke="black" points="130.83,-45.64 132.29,-35.15 124.6,-42.44 130.83,-45.64"/>
</g>
<!-- n0 -->
<g id="node3" class="node">
<title>n0</title>
<ellipse fill="none" stroke="black" cx="176.6" cy="-90" rx="27" ry="18"/>
<text text-anchor="start" x="172.1" y="-86.3" font-family="Times,serif" font-size="14.00">a</text>
</g>
<!-- n0&#45;&gt;n14 -->
<g id="edge2" class="edge">
<title>n0&#45;&gt;n14</title>
<path fill="none" stroke="black" d="M168.25,-72.76C163.88,-64.28 158.45,-53.71 153.55,-44.2"/>
<polygon fill="black" stroke="black" points="156.59,-42.44 148.9,-35.15 150.36,-45.64 156.59,-42.44"/>
</g>
<!-- n12 -->
<g id="node4" class="node">
<title>n12</title>
<ellipse fill="none" stroke="black" cx="68.6" cy="-162" rx="27" ry="18"/>
<text text-anchor="start" x="57.6" y="-158.3" font-family="Times,serif" font-size="14.00">sin</text>
</g>
<!-- n12&#45;&gt;n13 -->
<g id="edge3" class="edge">
<title>n12&#45;&gt;n13</title>
<path fill="none" stroke="black" d="M76.94,-144.76C81.31,-136.28 86.74,-125.71 91.64,-116.2"/>
<polygon fill="black" stroke="black" points="94.83,-117.64 96.29,-107.15 88.6,-114.44 94.83,-117.64"/>
</g>
<!-- n7 -->
<g id="node5" class="node">
<title>n7</title>
<ellipse fill="none" stroke="black" cx="140.6" cy="-162" rx="27.1" ry="18"/>
<text text-anchor="start" x="127.6" y="-158.3" font-family="Times,serif" font-size="14.00">exp</text>
</g>
<!-- n7&#45;&gt;n13 -->
<g id="edge4" class="edge">
<title>n7&#45;&gt;n13</title>
<path fill="none" stroke="black" d="M132.25,-144.76C127.88,-136.28 122.45,-125.71 117.55,-116.2"/>
<polygon fill="black" stroke="black" points="120.59,-114.44 112.9,-107.15 114.36,-117.64 120.59,-114.44"/>
</g>
<!-- n11 -->
<g id="node6" class="node">
<title>n11</title>
<ellipse fill="none" stroke="black" cx="68.6" cy="-234" rx="27" ry="18"/>
<text text-anchor="start" x="62.1" y="-230.3" font-family="Times,serif" font-size="14.00">+</text>
</g>
<!-- n11&#45;&gt;n12 -->
<g id="edge5" class="edge">
<title>n11&#45;&gt;n12</title>
<path fill="none" stroke="black" d="M68.6,-215.7C68.6,-207.98 68.6,-198.71 68.6,-190.11"/>
<polygon fill="black" stroke="black" points="72.1,-190.1 68.6,-180.1 65.1,-190.1 72.1,-190.1"/>
</g>
<!-- n4 -->
<g id="node7" class="node">
<title>n4</title>
<ellipse fill="none" stroke="black" cx="32.6" cy="-306" rx="27" ry="18"/>
<text text-anchor="start" x="28.1" y="-302.3" font-family="Times,serif" font-size="14.00">e</text>
</g>
<!-- n4&#45;&gt;n11 -->
<g id="edge6" class="edge">
<title>n4&#45;&gt;n11</title>
<path fill="none" stroke="black" d="M40.94,-288.76C45.31,-280.28 50.74,-269.71 55.64,-260.2"/>
<polygon fill="black" stroke="black" points="58.83,-261.64 60.29,-251.15 52.6,-258.44 58.83,-261.64"/>
</g>
<!-- n10 -->
<g id="node8" class="node">
<title>n10</title>
<ellipse fill="none" stroke="black" cx="104.6" cy="-306" rx="27" ry="18"/>
<text text-anchor="start" x="92.6" y="-302.3" font-family="Times,serif" font-size="14.00">cos</text>
</g>
<!-- n10&#45;&gt;n11 -->
<g id="edge7" class="edge">
<title>n10&#45;&gt;n11</title>
<path fill="none" stroke="black" d="M96.25,-288.76C91.88,-280.28 86.45,-269.71 81.55,-260.2"/>
<polygon fill="black" stroke="black" points="84.59,-258.44 76.9,-251.15 78.36,-261.64 84.59,-258.44"/>
</g>
<!-- n9 -->
<g id="node9" class="node">
<title>n9</title>
<ellipse fill="none" stroke="black" cx="104.6" cy="-378" rx="27" ry="18"/>
<text text-anchor="start" x="101.1" y="-374.3" font-family="Times,serif" font-size="14.00">*</text>
</g>
<!-- n9&#45;&gt;n10 -->
<g id="edge8" class="edge">
<title>n9&#45;&gt;n10</title>
<path fill="none" stroke="black" d="M104.6,-359.7C104.6,-351.98 104.6,-342.71 104.6,-334.11"/>
<polygon fill="black" stroke="black" points="108.1,-334.1 104.6,-324.1 101.1,-334.1 108.1,-334.1"/>
</g>
<!-- n8 -->
<g id="node10" class="node">
<title>n8</title>
<ellipse fill="none" stroke="black" cx="54.6" cy="-450" rx="54.69" ry="18"/>
<text text-anchor="start" x="20.6" y="-446.3" font-family="Times,serif" font-size="14.00">2.000000</text>
</g>
<!-- n8&#45;&gt;n9 -->
<g id="edge9" class="edge">
<title>n8&#45;&gt;n9</title>
<path fill="none" stroke="black" d="M66.44,-432.41C72.79,-423.53 80.71,-412.44 87.69,-402.67"/>
<polygon fill="black" stroke="black" points="90.55,-404.68 93.52,-394.51 84.86,-400.61 90.55,-404.68"/>
</g>
<!-- n1 -->
<g id="node11" class="node">
<title>n1</title>
<ellipse fill="none" stroke="black" cx="154.6" cy="-450" rx="27" ry="18"/>
<text text-anchor="start" x="149.6" y="-446.3" font-family="Times,serif" font-size="14.00">b</text>
</g>
<!-- n1&#45;&gt;n9 -->
<g id="edge10" class="edge">
<title>n1&#45;&gt;n9</title>
<path fill="none" stroke="black" d="M143.5,-433.46C137.09,-424.49 128.89,-413.02 121.68,-402.92"/>
<polygon fill="black" stroke="black" points="124.32,-400.59 115.66,-394.49 118.63,-404.66 124.32,-400.59"/>
</g>
<!-- n3 -->
<g id="node12" class="node">
<title>n3</title>
<ellipse fill="none" stroke="black" cx="140.6" cy="-234" rx="27" ry="18"/>
<text text-anchor="start" x="135.6" y="-230.3" font-family="Times,serif" font-size="14.00">d</text>
</g>
<!-- n3&#45;&gt;n7 -->
<g id="edge11" class="edge">
<title>n3&#45;&gt;n7</title>
<path fill="none" stroke="black" d="M140.6,-215.7C140.6,-207.98 140.6,-198.71 140.6,-190.11"/>
<polygon fill="black" stroke="black" points="144.1,-190.1 140.6,-180.1 137.1,-190.1 144.1,-190.1"/>
</g>
</g>
</svg>
