<?xml version="1.0" encoding="UTF-8" standalone="no"?>
<!DOCTYPE svg PUBLIC "-//W3C//DTD SVG 1.1//EN"
 "http://www.w3.org/Graphics/SVG/1.1/DTD/svg11.dtd">
<!-- Generated by graphviz version 2.43.0 (0)
 -->
<!-- Title: %3 Pages: 1 -->
<svg width="174pt" height="404pt"
 viewBox="0.00 0.00 174.00 404.00" xmlns="http://www.w3.org/2000/svg" xmlns:xlink="http://www.w3.org/1999/xlink">
<g id="graph0" class="graph" transform="scale(1 1) rotate(0) translate(4 400)">
<title>%3</title>
<polygon fill="white" stroke="transparent" points="-4,4 -4,-400 170,-400 170,4 -4,4"/>
<!-- n12 -->
<g id="node1" class="node">
<title>n12</title>
<ellipse fill="none" stroke="black" cx="27" cy="-18" rx="27" ry="18"/>
<text text-anchor="start" x="19.5" y="-14.3" font-family="Times,serif" font-size="14.00">@</text>
</g>
<!-- n11 -->
<g id="node2" class="node">
<title>n11</title>
<ellipse fill="none" stroke="black" cx="55" cy="-90" rx="27" ry="18"/>
<text text-anchor="start" x="51.5" y="-86.3" font-family="Times,serif" font-size="14.00">*</text>
</g>
<!-- n11&#45;&gt;n12 -->
<g id="edge1" class="edge">
<title>n11&#45;&gt;n12</title>
<path fill="none" stroke="black" d="M48.36,-72.41C45.09,-64.22 41.06,-54.14 37.38,-44.95"/>
<polygon fill="black" stroke="black" points="40.55,-43.45 33.59,-35.47 34.05,-46.05 40.55,-43.45"/>
</g>
<!-- n0 -->
<g id="node3" class="node">
<title>n0</title>
<ellipse fill="none" stroke="black" cx="65" cy="-378" rx="35.19" ry="18"/>
<text text-anchor="start" x="46" y="-374.3" font-family="Times,serif" font-size="14.00">Var:0</text>
</g>
<!-- n0&#45;&gt;n12 -->
<g id="edge2" class="edge">
<title>n0&#45;&gt;n12</title>
<path fill="none" stroke="black" d="M52.16,-361.05C33.22,-335.86 0,-284.62 0,-235 0,-235 0,-235 0,-161 0,-120.28 10.85,-74.13 18.79,-45.79"/>
<polygon fill="black" stroke="black" points="22.25,-46.43 21.67,-35.85 15.53,-44.49 22.25,-46.43"/>
</g>
<!-- n7 -->
<g id="node5" class="node">
<title>n7</title>
<ellipse fill="none" stroke="black" cx="55" cy="-234" rx="27" ry="18"/>
<text text-anchor="start" x="50.5" y="-230.3" font-family="Times,serif" font-size="14.00">e</text>
</g>
<!-- n0&#45;&gt;n7 -->
<g id="edge9" class="edge">
<title>n0&#45;&gt;n7</title>
<path fill="none" stroke="black" d="M63.79,-359.87C62.09,-335.67 58.96,-291.21 56.93,-262.39"/>
<polygon fill="black" stroke="black" points="60.4,-261.92 56.21,-252.19 53.42,-262.41 60.4,-261.92"/>
</g>
<!-- n9 -->
<g id="node6" class="node">
<title>n9</title>
<ellipse fill="none" stroke="black" cx="127" cy="-234" rx="27" ry="18"/>
<text text-anchor="start" x="120.5" y="-230.3" font-family="Times,serif" font-size="14.00">+</text>
</g>
<!-- n0&#45;&gt;n9 -->
<g id="edge6" class="edge">
<title>n0&#45;&gt;n9</title>
<path fill="none" stroke="black" d="M72.04,-360.22C79.58,-342.29 91.97,-313.07 103,-288 106.9,-279.13 111.25,-269.47 115.16,-260.85"/>
<polygon fill="black" stroke="black" points="118.38,-262.22 119.34,-251.67 112.01,-259.32 118.38,-262.22"/>
</g>
<!-- n8 -->
<g id="node7" class="node">
<title>n8</title>
<ellipse fill="none" stroke="black" cx="139" cy="-306" rx="27" ry="18"/>
<text text-anchor="start" x="127" y="-302.3" font-family="Times,serif" font-size="14.00">cos</text>
</g>
<!-- n0&#45;&gt;n8 -->
<g id="edge8" class="edge">
<title>n0&#45;&gt;n8</title>
<path fill="none" stroke="black" d="M81.06,-361.81C91.42,-352.01 105.05,-339.12 116.48,-328.3"/>
<polygon fill="black" stroke="black" points="119.12,-330.62 123.98,-321.21 114.31,-325.53 119.12,-330.62"/>
</g>
<!-- n10 -->
<g id="node4" class="node">
<title>n10</title>
<ellipse fill="none" stroke="black" cx="118" cy="-162" rx="27" ry="18"/>
<text text-anchor="start" x="107" y="-158.3" font-family="Times,serif" font-size="14.00">sin</text>
</g>
<!-- n10&#45;&gt;n11 -->
<g id="edge3" class="edge">
<title>n10&#45;&gt;n11</title>
<path fill="none" stroke="black" d="M104.64,-146.15C96.12,-136.69 84.91,-124.24 75.31,-113.56"/>
<polygon fill="black" stroke="black" points="77.63,-110.92 68.34,-105.82 72.43,-115.6 77.63,-110.92"/>
</g>
<!-- n7&#45;&gt;n11 -->
<g id="edge4" class="edge">
<title>n7&#45;&gt;n11</title>
<path fill="none" stroke="black" d="M55,-215.87C55,-191.67 55,-147.21 55,-118.39"/>
<polygon fill="black" stroke="black" points="58.5,-118.19 55,-108.19 51.5,-118.19 58.5,-118.19"/>
</g>
<!-- n9&#45;&gt;n10 -->
<g id="edge5" class="edge">
<title>n9&#45;&gt;n10</title>
<path fill="none" stroke="black" d="M124.82,-216.05C123.83,-208.35 122.63,-199.03 121.52,-190.36"/>
<polygon fill="black" stroke="black" points="124.97,-189.75 120.22,-180.28 118.02,-190.64 124.97,-189.75"/>
</g>
<!-- n8&#45;&gt;n9 -->
<g id="edge7" class="edge">
<title>n8&#45;&gt;n9</title>
<path fill="none" stroke="black" d="M136.1,-288.05C134.77,-280.35 133.18,-271.03 131.69,-262.36"/>
<polygon fill="black" stroke="black" points="135.1,-261.54 129.96,-252.28 128.2,-262.72 135.1,-261.54"/>
</g>
</g>
</svg>
